<svg height="280" width="640"><circle fill="#74C7D3" r="2" cx="2" cy="2"></circle><circle fill="#74C7D3" r="2" cx="16.409090909090907" cy="2"></circle><circle fill="#74C7D3" r="2" cx="30.818181818181817" cy="2"></circle><circle fill="#74C7D3" r="2" cx="45.22727272727273" cy="2"></circle><circle fill="#74C7D3" r="2" cx="59.63636363636363" cy="2"></circle><circle fill="#74C7D3" r="2" cx="74.04545454545455" cy="2"></circle><circle fill="#74C7D3" r="2" cx="88.45454545454545" cy="2"></circle><circle fill="#74C7D3" r="2" cx="102.86363636363636" cy="2"></circle><circle fill="#74C7D3" r="2" cx="117.27272727272727" cy="2"></circle><circle fill="#74C7D3" r="2" cx="131.6818181818182" cy="2"></circle><circle fill="#74C7D3" r="2" cx="146.0909090909091" cy="2"></circle><circle fill="#74C7D3" r="2" cx="160.5" cy="2"></circle><circle fill="#74C7D3" r="2" cx="174.9090909090909" cy="2"></circle><circle fill="#74C7D3" r="2" cx="189.3181818181818" cy="2"></circle><circle fill="#74C7D3" r="2" cx="203.72727272727272" cy="2"></circle><circle fill="#74C7D3" r="2" cx="218.13636363636363" cy="2"></circle><circle fill="#74C7D3" r="2" cx="232.54545454545453" cy="2"></circle><circle fill="#74C7D3" r="2" cx="246.95454545454544" cy="2"></circle><circle fill="#74C7D3" r="2" cx="261.3636363636364" cy="2"></circle><circle fill="#74C7D3" r="2" cx="275.77272727272725" cy="2"></circle><circle fill="#74C7D3" r="2" cx="290.1818181818182" cy="2"></circle><circle fill="#74C7D3" r="2" cx="304.59090909090907" cy="2"></circle><circle fill="#74C7D3" r="2" cx="319" cy="2"></circle><circle fill="#74C7D3" r="2" cx="333.4090909090909" cy="2"></circle><circle fill="#74C7D3" r="2" cx="347.8181818181818" cy="2"></circle><circle fill="#74C7D3" r="2" cx="362.2272727272727" cy="2"></circle><circle fill="#74C7D3" r="2" cx="376.6363636363636" cy="2"></circle><circle fill="#74C7D3" r="2" cx="391.0454545454545" cy="2"></circle><circle fill="#74C7D3" r="2" cx="405.45454545454544" cy="2"></circle><circle fill="#74C7D3" r="2" cx="419.8636363636363" cy="2"></circle><circle fill="#74C7D3" r="2" cx="434.27272727272725" cy="2"></circle><circle fill="#74C7D3" r="2" cx="448.68181818181813" cy="2"></circle><circle fill="#74C7D3" r="2" cx="463.09090909090907" cy="2"></circle><circle fill="#74C7D3" r="2" cx="477.5" cy="2"></circle><circle fill="#74C7D3" r="2" cx="491.9090909090909" cy="2"></circle><circle fill="#74C7D3" r="2" cx="506.3181818181818" cy="2"></circle><circle fill="#74C7D3" r="2" cx="520.7272727272727" cy="2"></circle><circle fill="#74C7D3" r="2" cx="535.1363636363636" cy="2"></circle><circle fill="#74C7D3" r="2" cx="549.5454545454545" cy="2"></circle><circle fill="#74C7D3" r="2" cx="563.9545454545454" cy="2"></circle><circle fill="#74C7D3" r="2" cx="578.3636363636364" cy="2"></circle><circle fill="#74C7D3" r="2" cx="592.7727272727273" cy="2"></circle><circle fill="#74C7D3" r="2" cx="607.1818181818181" cy="2"></circle><circle fill="#74C7D3" r="2" cx="621.590909090909" cy="2"></circle><circle fill="#74C7D3" r="2" cx="636" cy="2"></circle><circle fill="#74C7D3" r="2" cx="2" cy="16.409090909090907"></circle><circle fill="#74C7D3" r="2" cx="16.409090909090907" cy="16.409090909090907"></circle><circle fill="#74C7D3" r="2" cx="30.818181818181817" cy="16.409090909090907"></circle><circle fill="#74C7D3" r="2" cx="45.22727272727273" cy="16.409090909090907"></circle><circle fill="#74C7D3" r="2" cx="59.63636363636363" cy="16.409090909090907"></circle><circle fill="#74C7D3" r="2" cx="74.04545454545455" cy="16.409090909090907"></circle><circle fill="#74C7D3" r="2" cx="88.45454545454545" cy="16.409090909090907"></circle><circle fill="#74C7D3" r="2" cx="102.86363636363636" cy="16.409090909090907"></circle><circle fill="#74C7D3" r="2" cx="117.27272727272727" cy="16.409090909090907"></circle><circle fill="#74C7D3" r="2" cx="131.6818181818182" cy="16.409090909090907"></circle><circle fill="#74C7D3" r="2" cx="146.0909090909091" cy="16.409090909090907"></circle><circle fill="#74C7D3" r="2" cx="160.5" cy="16.409090909090907"></circle><circle fill="#74C7D3" r="2" cx="174.9090909090909" cy="16.409090909090907"></circle><circle fill="#74C7D3" r="2" cx="189.3181818181818" cy="16.409090909090907"></circle><circle fill="#74C7D3" r="2" cx="203.72727272727272" cy="16.409090909090907"></circle><circle fill="#74C7D3" r="2" cx="218.13636363636363" cy="16.409090909090907"></circle><circle fill="#74C7D3" r="2" cx="232.54545454545453" cy="16.409090909090907"></circle><circle fill="#74C7D3" r="2" cx="246.95454545454544" cy="16.409090909090907"></circle><circle fill="#74C7D3" r="2" cx="261.3636363636364" cy="16.409090909090907"></circle><circle fill="#74C7D3" r="2" cx="275.77272727272725" cy="16.409090909090907"></circle><circle fill="#74C7D3" r="2" cx="290.1818181818182" cy="16.409090909090907"></circle><circle fill="#74C7D3" r="2" cx="304.59090909090907" cy="16.409090909090907"></circle><circle fill="#74C7D3" r="2" cx="319" cy="16.409090909090907"></circle><circle fill="#74C7D3" r="2" cx="333.4090909090909" cy="16.409090909090907"></circle><circle fill="#74C7D3" r="2" cx="347.8181818181818" cy="16.409090909090907"></circle><circle fill="#74C7D3" r="2" cx="362.2272727272727" cy="16.409090909090907"></circle><circle fill="#74C7D3" r="2" cx="376.6363636363636" cy="16.409090909090907"></circle><circle fill="#74C7D3" r="2" cx="391.0454545454545" cy="16.409090909090907"></circle><circle fill="#74C7D3" r="2" cx="405.45454545454544" cy="16.409090909090907"></circle><circle fill="#74C7D3" r="2" cx="419.8636363636363" cy="16.409090909090907"></circle><circle fill="#74C7D3" r="2" cx="434.27272727272725" cy="16.409090909090907"></circle><circle fill="#74C7D3" r="2" cx="448.68181818181813" cy="16.409090909090907"></circle><circle fill="#74C7D3" r="2" cx="463.09090909090907" cy="16.409090909090907"></circle><circle fill="#74C7D3" r="2" cx="477.5" cy="16.409090909090907"></circle><circle fill="#74C7D3" r="2" cx="491.9090909090909" cy="16.409090909090907"></circle><circle fill="#74C7D3" r="2" cx="506.3181818181818" cy="16.409090909090907"></circle><circle fill="#74C7D3" r="2" cx="520.7272727272727" cy="16.409090909090907"></circle><circle fill="#74C7D3" r="2" cx="535.1363636363636" cy="16.409090909090907"></circle><circle fill="#74C7D3" r="2" cx="549.5454545454545" cy="16.409090909090907"></circle><circle fill="#74C7D3" r="2" cx="563.9545454545454" cy="16.409090909090907"></circle><circle fill="#74C7D3" r="2" cx="578.3636363636364" cy="16.409090909090907"></circle><circle fill="#74C7D3" r="2" cx="592.7727272727273" cy="16.409090909090907"></circle><circle fill="#74C7D3" r="2" cx="607.1818181818181" cy="16.409090909090907"></circle><circle fill="#74C7D3" r="2" cx="621.590909090909" cy="16.409090909090907"></circle><circle fill="#74C7D3" r="2" cx="636" cy="16.409090909090907"></circle><circle fill="#74C7D3" r="2" cx="2" cy="30.818181818181817"></circle><circle fill="#74C7D3" r="2" cx="16.409090909090907" cy="30.818181818181817"></circle><circle fill="#74C7D3" r="2" cx="30.818181818181817" cy="30.818181818181817"></circle><circle fill="#74C7D3" r="2" cx="45.22727272727273" cy="30.818181818181817"></circle><circle fill="#74C7D3" r="2" cx="59.63636363636363" cy="30.818181818181817"></circle><circle fill="#74C7D3" r="2" cx="74.04545454545455" cy="30.818181818181817"></circle><circle fill="#74C7D3" r="2" cx="88.45454545454545" cy="30.818181818181817"></circle><circle fill="#74C7D3" r="2" cx="102.86363636363636" cy="30.818181818181817"></circle><circle fill="#74C7D3" r="2" cx="117.27272727272727" cy="30.818181818181817"></circle><circle fill="#74C7D3" r="2" cx="131.6818181818182" cy="30.818181818181817"></circle><circle fill="#74C7D3" r="2" cx="146.0909090909091" cy="30.818181818181817"></circle><circle fill="#74C7D3" r="2" cx="160.5" cy="30.818181818181817"></circle><circle fill="#74C7D3" r="2" cx="174.9090909090909" cy="30.818181818181817"></circle><circle fill="#74C7D3" r="2" cx="189.3181818181818" cy="30.818181818181817"></circle><circle fill="#74C7D3" r="2" cx="203.72727272727272" cy="30.818181818181817"></circle><circle fill="#74C7D3" r="2" cx="218.13636363636363" cy="30.818181818181817"></circle><circle fill="#74C7D3" r="2" cx="232.54545454545453" cy="30.818181818181817"></circle><circle fill="#74C7D3" r="2" cx="246.95454545454544" cy="30.818181818181817"></circle><circle fill="#74C7D3" r="2" cx="261.3636363636364" cy="30.818181818181817"></circle><circle fill="#74C7D3" r="2" cx="275.77272727272725" cy="30.818181818181817"></circle><circle fill="#74C7D3" r="2" cx="290.1818181818182" cy="30.818181818181817"></circle><circle fill="#74C7D3" r="2" cx="304.59090909090907" cy="30.818181818181817"></circle><circle fill="#74C7D3" r="2" cx="319" cy="30.818181818181817"></circle><circle fill="#74C7D3" r="2" cx="333.4090909090909" cy="30.818181818181817"></circle><circle fill="#74C7D3" r="2" cx="347.8181818181818" cy="30.818181818181817"></circle><circle fill="#74C7D3" r="2" cx="362.2272727272727" cy="30.818181818181817"></circle><circle fill="#74C7D3" r="2" cx="376.6363636363636" cy="30.818181818181817"></circle><circle fill="#74C7D3" r="2" cx="391.0454545454545" cy="30.818181818181817"></circle><circle fill="#74C7D3" r="2" cx="405.45454545454544" cy="30.818181818181817"></circle><circle fill="#74C7D3" r="2" cx="419.8636363636363" cy="30.818181818181817"></circle><circle fill="#74C7D3" r="2" cx="434.27272727272725" cy="30.818181818181817"></circle><circle fill="#74C7D3" r="2" cx="448.68181818181813" cy="30.818181818181817"></circle><circle fill="#74C7D3" r="2" cx="463.09090909090907" cy="30.818181818181817"></circle><circle fill="#74C7D3" r="2" cx="477.5" cy="30.818181818181817"></circle><circle fill="#74C7D3" r="2" cx="491.9090909090909" cy="30.818181818181817"></circle><circle fill="#74C7D3" r="2" cx="506.3181818181818" cy="30.818181818181817"></circle><circle fill="#74C7D3" r="2" cx="520.7272727272727" cy="30.818181818181817"></circle><circle fill="#74C7D3" r="2" cx="535.1363636363636" cy="30.818181818181817"></circle><circle fill="#74C7D3" r="2" cx="549.5454545454545" cy="30.818181818181817"></circle><circle fill="#74C7D3" r="2" cx="563.9545454545454" cy="30.818181818181817"></circle><circle fill="#74C7D3" r="2" cx="578.3636363636364" cy="30.818181818181817"></circle><circle fill="#74C7D3" r="2" cx="592.7727272727273" cy="30.818181818181817"></circle><circle fill="#74C7D3" r="2" cx="607.1818181818181" cy="30.818181818181817"></circle><circle fill="#74C7D3" r="2" cx="621.590909090909" cy="30.818181818181817"></circle><circle fill="#74C7D3" r="2" cx="636" cy="30.818181818181817"></circle><circle fill="#74C7D3" r="2" cx="2" cy="45.22727272727273"></circle><circle fill="#74C7D3" r="2" cx="16.409090909090907" cy="45.22727272727273"></circle><circle fill="#74C7D3" r="2" cx="30.818181818181817" cy="45.22727272727273"></circle><circle fill="#74C7D3" r="2" cx="45.22727272727273" cy="45.22727272727273"></circle><circle fill="#74C7D3" r="2" cx="59.63636363636363" cy="45.22727272727273"></circle><circle fill="#74C7D3" r="2" cx="74.04545454545455" cy="45.22727272727273"></circle><circle fill="#74C7D3" r="2" cx="88.45454545454545" cy="45.22727272727273"></circle><circle fill="#74C7D3" r="2" cx="102.86363636363636" cy="45.22727272727273"></circle><circle fill="#74C7D3" r="2" cx="117.27272727272727" cy="45.22727272727273"></circle><circle fill="#74C7D3" r="2" cx="131.6818181818182" cy="45.22727272727273"></circle><circle fill="#74C7D3" r="2" cx="146.0909090909091" cy="45.22727272727273"></circle><circle fill="#74C7D3" r="2" cx="160.5" cy="45.22727272727273"></circle><circle fill="#74C7D3" r="2" cx="174.9090909090909" cy="45.22727272727273"></circle><circle fill="#74C7D3" r="2" cx="189.3181818181818" cy="45.22727272727273"></circle><circle fill="#74C7D3" r="2" cx="203.72727272727272" cy="45.22727272727273"></circle><circle fill="#74C7D3" r="2" cx="218.13636363636363" cy="45.22727272727273"></circle><circle fill="#74C7D3" r="2" cx="232.54545454545453" cy="45.22727272727273"></circle><circle fill="#74C7D3" r="2" cx="246.95454545454544" cy="45.22727272727273"></circle><circle fill="#74C7D3" r="2" cx="261.3636363636364" cy="45.22727272727273"></circle><circle fill="#74C7D3" r="2" cx="275.77272727272725" cy="45.22727272727273"></circle><circle fill="#74C7D3" r="2" cx="290.1818181818182" cy="45.22727272727273"></circle><circle fill="#74C7D3" r="2" cx="304.59090909090907" cy="45.22727272727273"></circle><circle fill="#74C7D3" r="2" cx="319" cy="45.22727272727273"></circle><circle fill="#74C7D3" r="2" cx="333.4090909090909" cy="45.22727272727273"></circle><circle fill="#74C7D3" r="2" cx="347.8181818181818" cy="45.22727272727273"></circle><circle fill="#74C7D3" r="2" cx="362.2272727272727" cy="45.22727272727273"></circle><circle fill="#74C7D3" r="2" cx="376.6363636363636" cy="45.22727272727273"></circle><circle fill="#74C7D3" r="2" cx="391.0454545454545" cy="45.22727272727273"></circle><circle fill="#74C7D3" r="2" cx="405.45454545454544" cy="45.22727272727273"></circle><circle fill="#74C7D3" r="2" cx="419.8636363636363" cy="45.22727272727273"></circle><circle fill="#74C7D3" r="2" cx="434.27272727272725" cy="45.22727272727273"></circle><circle fill="#74C7D3" r="2" cx="448.68181818181813" cy="45.22727272727273"></circle><circle fill="#74C7D3" r="2" cx="463.09090909090907" cy="45.22727272727273"></circle><circle fill="#74C7D3" r="2" cx="477.5" cy="45.22727272727273"></circle><circle fill="#74C7D3" r="2" cx="491.9090909090909" cy="45.22727272727273"></circle><circle fill="#74C7D3" r="2" cx="506.3181818181818" cy="45.22727272727273"></circle><circle fill="#74C7D3" r="2" cx="520.7272727272727" cy="45.22727272727273"></circle><circle fill="#74C7D3" r="2" cx="535.1363636363636" cy="45.22727272727273"></circle><circle fill="#74C7D3" r="2" cx="549.5454545454545" cy="45.22727272727273"></circle><circle fill="#74C7D3" r="2" cx="563.9545454545454" cy="45.22727272727273"></circle><circle fill="#74C7D3" r="2" cx="578.3636363636364" cy="45.22727272727273"></circle><circle fill="#74C7D3" r="2" cx="592.7727272727273" cy="45.22727272727273"></circle><circle fill="#74C7D3" r="2" cx="607.1818181818181" cy="45.22727272727273"></circle><circle fill="#74C7D3" r="2" cx="621.590909090909" cy="45.22727272727273"></circle><circle fill="#74C7D3" r="2" cx="636" cy="45.22727272727273"></circle><circle fill="#74C7D3" r="2" cx="2" cy="59.63636363636363"></circle><circle fill="#74C7D3" r="2" cx="16.409090909090907" cy="59.63636363636363"></circle><circle fill="#74C7D3" r="2" cx="30.818181818181817" cy="59.63636363636363"></circle><circle fill="#74C7D3" r="2" cx="45.22727272727273" cy="59.63636363636363"></circle><circle fill="#74C7D3" r="2" cx="59.63636363636363" cy="59.63636363636363"></circle><circle fill="#74C7D3" r="2" cx="74.04545454545455" cy="59.63636363636363"></circle><circle fill="#74C7D3" r="2" cx="88.45454545454545" cy="59.63636363636363"></circle><circle fill="#74C7D3" r="2" cx="102.86363636363636" cy="59.63636363636363"></circle><circle fill="#74C7D3" r="2" cx="117.27272727272727" cy="59.63636363636363"></circle><circle fill="#74C7D3" r="2" cx="131.6818181818182" cy="59.63636363636363"></circle><circle fill="#74C7D3" r="2" cx="146.0909090909091" cy="59.63636363636363"></circle><circle fill="#74C7D3" r="2" cx="160.5" cy="59.63636363636363"></circle><circle fill="#74C7D3" r="2" cx="174.9090909090909" cy="59.63636363636363"></circle><circle fill="#74C7D3" r="2" cx="189.3181818181818" cy="59.63636363636363"></circle><circle fill="#74C7D3" r="2" cx="203.72727272727272" cy="59.63636363636363"></circle><circle fill="#74C7D3" r="2" cx="218.13636363636363" cy="59.63636363636363"></circle><circle fill="#74C7D3" r="2" cx="232.54545454545453" cy="59.63636363636363"></circle><circle fill="#74C7D3" r="2" cx="246.95454545454544" cy="59.63636363636363"></circle><circle fill="#74C7D3" r="2" cx="261.3636363636364" cy="59.63636363636363"></circle><circle fill="#74C7D3" r="2" cx="275.77272727272725" cy="59.63636363636363"></circle><circle fill="#74C7D3" r="2" cx="290.1818181818182" cy="59.63636363636363"></circle><circle fill="#74C7D3" r="2" cx="304.59090909090907" cy="59.63636363636363"></circle><circle fill="#74C7D3" r="2" cx="319" cy="59.63636363636363"></circle><circle fill="#74C7D3" r="2" cx="333.4090909090909" cy="59.63636363636363"></circle><circle fill="#74C7D3" r="2" cx="347.8181818181818" cy="59.63636363636363"></circle><circle fill="#74C7D3" r="2" cx="362.2272727272727" cy="59.63636363636363"></circle><circle fill="#74C7D3" r="2" cx="376.6363636363636" cy="59.63636363636363"></circle><circle fill="#74C7D3" r="2" cx="391.0454545454545" cy="59.63636363636363"></circle><circle fill="#74C7D3" r="2" cx="405.45454545454544" cy="59.63636363636363"></circle><circle fill="#74C7D3" r="2" cx="419.8636363636363" cy="59.63636363636363"></circle><circle fill="#74C7D3" r="2" cx="434.27272727272725" cy="59.63636363636363"></circle><circle fill="#74C7D3" r="2" cx="448.68181818181813" cy="59.63636363636363"></circle><circle fill="#74C7D3" r="2" cx="463.09090909090907" cy="59.63636363636363"></circle><circle fill="#74C7D3" r="2" cx="477.5" cy="59.63636363636363"></circle><circle fill="#74C7D3" r="2" cx="491.9090909090909" cy="59.63636363636363"></circle><circle fill="#74C7D3" r="2" cx="506.3181818181818" cy="59.63636363636363"></circle><circle fill="#74C7D3" r="2" cx="520.7272727272727" cy="59.63636363636363"></circle><circle fill="#74C7D3" r="2" cx="535.1363636363636" cy="59.63636363636363"></circle><circle fill="#74C7D3" r="2" cx="549.5454545454545" cy="59.63636363636363"></circle><circle fill="#74C7D3" r="2" cx="563.9545454545454" cy="59.63636363636363"></circle><circle fill="#74C7D3" r="2" cx="578.3636363636364" cy="59.63636363636363"></circle><circle fill="#74C7D3" r="2" cx="592.7727272727273" cy="59.63636363636363"></circle><circle fill="#74C7D3" r="2" cx="607.1818181818181" cy="59.63636363636363"></circle><circle fill="#74C7D3" r="2" cx="621.590909090909" cy="59.63636363636363"></circle><circle fill="#74C7D3" r="2" cx="636" cy="59.63636363636363"></circle><circle fill="#74C7D3" r="2" cx="2" cy="74.04545454545455"></circle><circle fill="#74C7D3" r="2" cx="16.409090909090907" cy="74.04545454545455"></circle><circle fill="#74C7D3" r="2" cx="30.818181818181817" cy="74.04545454545455"></circle><circle fill="#74C7D3" r="2" cx="45.22727272727273" cy="74.04545454545455"></circle><circle fill="#74C7D3" r="2" cx="59.63636363636363" cy="74.04545454545455"></circle><circle fill="#74C7D3" r="2" cx="74.04545454545455" cy="74.04545454545455"></circle><circle fill="#74C7D3" r="2" cx="88.45454545454545" cy="74.04545454545455"></circle><circle fill="#74C7D3" r="2" cx="102.86363636363636" cy="74.04545454545455"></circle><circle fill="#74C7D3" r="2" cx="117.27272727272727" cy="74.04545454545455"></circle><circle fill="#74C7D3" r="2" cx="131.6818181818182" cy="74.04545454545455"></circle><circle fill="#74C7D3" r="2" cx="146.0909090909091" cy="74.04545454545455"></circle><circle fill="#74C7D3" r="2" cx="160.5" cy="74.04545454545455"></circle><circle fill="#74C7D3" r="2" cx="174.9090909090909" cy="74.04545454545455"></circle><circle fill="#74C7D3" r="2" cx="189.3181818181818" cy="74.04545454545455"></circle><circle fill="#74C7D3" r="2" cx="203.72727272727272" cy="74.04545454545455"></circle><circle fill="#74C7D3" r="2" cx="218.13636363636363" cy="74.04545454545455"></circle><circle fill="#74C7D3" r="2" cx="232.54545454545453" cy="74.04545454545455"></circle><circle fill="#74C7D3" r="2" cx="246.95454545454544" cy="74.04545454545455"></circle><circle fill="#74C7D3" r="2" cx="261.3636363636364" cy="74.04545454545455"></circle><circle fill="#74C7D3" r="2" cx="275.77272727272725" cy="74.04545454545455"></circle><circle fill="#74C7D3" r="2" cx="290.1818181818182" cy="74.04545454545455"></circle><circle fill="#74C7D3" r="2" cx="304.59090909090907" cy="74.04545454545455"></circle><circle fill="#74C7D3" r="2" cx="319" cy="74.04545454545455"></circle><circle fill="#74C7D3" r="2" cx="333.4090909090909" cy="74.04545454545455"></circle><circle fill="#74C7D3" r="2" cx="347.8181818181818" cy="74.04545454545455"></circle><circle fill="#74C7D3" r="2" cx="362.2272727272727" cy="74.04545454545455"></circle><circle fill="#74C7D3" r="2" cx="376.6363636363636" cy="74.04545454545455"></circle><circle fill="#74C7D3" r="2" cx="391.0454545454545" cy="74.04545454545455"></circle><circle fill="#74C7D3" r="2" cx="405.45454545454544" cy="74.04545454545455"></circle><circle fill="#74C7D3" r="2" cx="419.8636363636363" cy="74.04545454545455"></circle><circle fill="#74C7D3" r="2" cx="434.27272727272725" cy="74.04545454545455"></circle><circle fill="#74C7D3" r="2" cx="448.68181818181813" cy="74.04545454545455"></circle><circle fill="#74C7D3" r="2" cx="463.09090909090907" cy="74.04545454545455"></circle><circle fill="#74C7D3" r="2" cx="477.5" cy="74.04545454545455"></circle><circle fill="#74C7D3" r="2" cx="491.9090909090909" cy="74.04545454545455"></circle><circle fill="#74C7D3" r="2" cx="506.3181818181818" cy="74.04545454545455"></circle><circle fill="#74C7D3" r="2" cx="520.7272727272727" cy="74.04545454545455"></circle><circle fill="#74C7D3" r="2" cx="535.1363636363636" cy="74.04545454545455"></circle><circle fill="#74C7D3" r="2" cx="549.5454545454545" cy="74.04545454545455"></circle><circle fill="#74C7D3" r="2" cx="563.9545454545454" cy="74.04545454545455"></circle><circle fill="#74C7D3" r="2" cx="578.3636363636364" cy="74.04545454545455"></circle><circle fill="#74C7D3" r="2" cx="592.7727272727273" cy="74.04545454545455"></circle><circle fill="#74C7D3" r="2" cx="607.1818181818181" cy="74.04545454545455"></circle><circle fill="#74C7D3" r="2" cx="621.590909090909" cy="74.04545454545455"></circle><circle fill="#74C7D3" r="2" cx="636" cy="74.04545454545455"></circle><circle fill="#74C7D3" r="2" cx="2" cy="88.45454545454545"></circle><circle fill="#74C7D3" r="2" cx="16.409090909090907" cy="88.45454545454545"></circle><circle fill="#74C7D3" r="2" cx="30.818181818181817" cy="88.45454545454545"></circle><circle fill="#74C7D3" r="2" cx="45.22727272727273" cy="88.45454545454545"></circle><circle fill="#74C7D3" r="2" cx="59.63636363636363" cy="88.45454545454545"></circle><circle fill="#74C7D3" r="2" cx="74.04545454545455" cy="88.45454545454545"></circle><circle fill="#74C7D3" r="2" cx="88.45454545454545" cy="88.45454545454545"></circle><circle fill="#74C7D3" r="2" cx="102.86363636363636" cy="88.45454545454545"></circle><circle fill="#74C7D3" r="2" cx="117.27272727272727" cy="88.45454545454545"></circle><circle fill="#74C7D3" r="2" cx="131.6818181818182" cy="88.45454545454545"></circle><circle fill="#74C7D3" r="2" cx="146.0909090909091" cy="88.45454545454545"></circle><circle fill="#74C7D3" r="2" cx="160.5" cy="88.45454545454545"></circle><circle fill="#74C7D3" r="2" cx="174.9090909090909" cy="88.45454545454545"></circle><circle fill="#74C7D3" r="2" cx="189.3181818181818" cy="88.45454545454545"></circle><circle fill="#74C7D3" r="2" cx="203.72727272727272" cy="88.45454545454545"></circle><circle fill="#74C7D3" r="2" cx="218.13636363636363" cy="88.45454545454545"></circle><circle fill="#74C7D3" r="2" cx="232.54545454545453" cy="88.45454545454545"></circle><circle fill="#74C7D3" r="2" cx="246.95454545454544" cy="88.45454545454545"></circle><circle fill="#74C7D3" r="2" cx="261.3636363636364" cy="88.45454545454545"></circle><circle fill="#74C7D3" r="2" cx="275.77272727272725" cy="88.45454545454545"></circle><circle fill="#74C7D3" r="2" cx="290.1818181818182" cy="88.45454545454545"></circle><circle fill="#74C7D3" r="2" cx="304.59090909090907" cy="88.45454545454545"></circle><circle fill="#74C7D3" r="2" cx="319" cy="88.45454545454545"></circle><circle fill="#74C7D3" r="2" cx="333.4090909090909" cy="88.45454545454545"></circle><circle fill="#74C7D3" r="2" cx="347.8181818181818" cy="88.45454545454545"></circle><circle fill="#74C7D3" r="2" cx="362.2272727272727" cy="88.45454545454545"></circle><circle fill="#74C7D3" r="2" cx="376.6363636363636" cy="88.45454545454545"></circle><circle fill="#74C7D3" r="2" cx="391.0454545454545" cy="88.45454545454545"></circle><circle fill="#74C7D3" r="2" cx="405.45454545454544" cy="88.45454545454545"></circle><circle fill="#74C7D3" r="2" cx="419.8636363636363" cy="88.45454545454545"></circle><circle fill="#74C7D3" r="2" cx="434.27272727272725" cy="88.45454545454545"></circle><circle fill="#74C7D3" r="2" cx="448.68181818181813" cy="88.45454545454545"></circle><circle fill="#74C7D3" r="2" cx="463.09090909090907" cy="88.45454545454545"></circle><circle fill="#74C7D3" r="2" cx="477.5" cy="88.45454545454545"></circle><circle fill="#74C7D3" r="2" cx="491.9090909090909" cy="88.45454545454545"></circle><circle fill="#74C7D3" r="2" cx="506.3181818181818" cy="88.45454545454545"></circle><circle fill="#74C7D3" r="2" cx="520.7272727272727" cy="88.45454545454545"></circle><circle fill="#74C7D3" r="2" cx="535.1363636363636" cy="88.45454545454545"></circle><circle fill="#74C7D3" r="2" cx="549.5454545454545" cy="88.45454545454545"></circle><circle fill="#74C7D3" r="2" cx="563.9545454545454" cy="88.45454545454545"></circle><circle fill="#74C7D3" r="2" cx="578.3636363636364" cy="88.45454545454545"></circle><circle fill="#74C7D3" r="2" cx="592.7727272727273" cy="88.45454545454545"></circle><circle fill="#74C7D3" r="2" cx="607.1818181818181" cy="88.45454545454545"></circle><circle fill="#74C7D3" r="2" cx="621.590909090909" cy="88.45454545454545"></circle><circle fill="#74C7D3" r="2" cx="636" cy="88.45454545454545"></circle><circle fill="#74C7D3" r="2" cx="2" cy="102.86363636363636"></circle><circle fill="#74C7D3" r="2" cx="16.409090909090907" cy="102.86363636363636"></circle><circle fill="#74C7D3" r="2" cx="30.818181818181817" cy="102.86363636363636"></circle><circle fill="#74C7D3" r="2" cx="45.22727272727273" cy="102.86363636363636"></circle><circle fill="#74C7D3" r="2" cx="59.63636363636363" cy="102.86363636363636"></circle><circle fill="#74C7D3" r="2" cx="74.04545454545455" cy="102.86363636363636"></circle><circle fill="#74C7D3" r="2" cx="88.45454545454545" cy="102.86363636363636"></circle><circle fill="#74C7D3" r="2" cx="102.86363636363636" cy="102.86363636363636"></circle><circle fill="#74C7D3" r="2" cx="117.27272727272727" cy="102.86363636363636"></circle><circle fill="#74C7D3" r="2" cx="131.6818181818182" cy="102.86363636363636"></circle><circle fill="#74C7D3" r="2" cx="146.0909090909091" cy="102.86363636363636"></circle><circle fill="#74C7D3" r="2" cx="160.5" cy="102.86363636363636"></circle><circle fill="#74C7D3" r="2" cx="174.9090909090909" cy="102.86363636363636"></circle><circle fill="#74C7D3" r="2" cx="189.3181818181818" cy="102.86363636363636"></circle><circle fill="#74C7D3" r="2" cx="203.72727272727272" cy="102.86363636363636"></circle><circle fill="#74C7D3" r="2" cx="218.13636363636363" cy="102.86363636363636"></circle><circle fill="#74C7D3" r="2" cx="232.54545454545453" cy="102.86363636363636"></circle><circle fill="#74C7D3" r="2" cx="246.95454545454544" cy="102.86363636363636"></circle><circle fill="#74C7D3" r="2" cx="261.3636363636364" cy="102.86363636363636"></circle><circle fill="#74C7D3" r="2" cx="275.77272727272725" cy="102.86363636363636"></circle><circle fill="#74C7D3" r="2" cx="290.1818181818182" cy="102.86363636363636"></circle><circle fill="#74C7D3" r="2" cx="304.59090909090907" cy="102.86363636363636"></circle><circle fill="#74C7D3" r="2" cx="319" cy="102.86363636363636"></circle><circle fill="#74C7D3" r="2" cx="333.4090909090909" cy="102.86363636363636"></circle><circle fill="#74C7D3" r="2" cx="347.8181818181818" cy="102.86363636363636"></circle><circle fill="#74C7D3" r="2" cx="362.2272727272727" cy="102.86363636363636"></circle><circle fill="#74C7D3" r="2" cx="376.6363636363636" cy="102.86363636363636"></circle><circle fill="#74C7D3" r="2" cx="391.0454545454545" cy="102.86363636363636"></circle><circle fill="#74C7D3" r="2" cx="405.45454545454544" cy="102.86363636363636"></circle><circle fill="#74C7D3" r="2" cx="419.8636363636363" cy="102.86363636363636"></circle><circle fill="#74C7D3" r="2" cx="434.27272727272725" cy="102.86363636363636"></circle><circle fill="#74C7D3" r="2" cx="448.68181818181813" cy="102.86363636363636"></circle><circle fill="#74C7D3" r="2" cx="463.09090909090907" cy="102.86363636363636"></circle><circle fill="#74C7D3" r="2" cx="477.5" cy="102.86363636363636"></circle><circle fill="#74C7D3" r="2" cx="491.9090909090909" cy="102.86363636363636"></circle><circle fill="#74C7D3" r="2" cx="506.3181818181818" cy="102.86363636363636"></circle><circle fill="#74C7D3" r="2" cx="520.7272727272727" cy="102.86363636363636"></circle><circle fill="#74C7D3" r="2" cx="535.1363636363636" cy="102.86363636363636"></circle><circle fill="#74C7D3" r="2" cx="549.5454545454545" cy="102.86363636363636"></circle><circle fill="#74C7D3" r="2" cx="563.9545454545454" cy="102.86363636363636"></circle><circle fill="#74C7D3" r="2" cx="578.3636363636364" cy="102.86363636363636"></circle><circle fill="#74C7D3" r="2" cx="592.7727272727273" cy="102.86363636363636"></circle><circle fill="#74C7D3" r="2" cx="607.1818181818181" cy="102.86363636363636"></circle><circle fill="#74C7D3" r="2" cx="621.590909090909" cy="102.86363636363636"></circle><circle fill="#74C7D3" r="2" cx="636" cy="102.86363636363636"></circle><circle fill="#74C7D3" r="2" cx="2" cy="117.27272727272727"></circle><circle fill="#74C7D3" r="2" cx="16.409090909090907" cy="117.27272727272727"></circle><circle fill="#74C7D3" r="2" cx="30.818181818181817" cy="117.27272727272727"></circle><circle fill="#74C7D3" r="2" cx="45.22727272727273" cy="117.27272727272727"></circle><circle fill="#74C7D3" r="2" cx="59.63636363636363" cy="117.27272727272727"></circle><circle fill="#74C7D3" r="2" cx="74.04545454545455" cy="117.27272727272727"></circle><circle fill="#74C7D3" r="2" cx="88.45454545454545" cy="117.27272727272727"></circle><circle fill="#74C7D3" r="2" cx="102.86363636363636" cy="117.27272727272727"></circle><circle fill="#74C7D3" r="2" cx="117.27272727272727" cy="117.27272727272727"></circle><circle fill="#74C7D3" r="2" cx="131.6818181818182" cy="117.27272727272727"></circle><circle fill="#74C7D3" r="2" cx="146.0909090909091" cy="117.27272727272727"></circle><circle fill="#74C7D3" r="2" cx="160.5" cy="117.27272727272727"></circle><circle fill="#74C7D3" r="2" cx="174.9090909090909" cy="117.27272727272727"></circle><circle fill="#74C7D3" r="2" cx="189.3181818181818" cy="117.27272727272727"></circle><circle fill="#74C7D3" r="2" cx="203.72727272727272" cy="117.27272727272727"></circle><circle fill="#74C7D3" r="2" cx="218.13636363636363" cy="117.27272727272727"></circle><circle fill="#74C7D3" r="2" cx="232.54545454545453" cy="117.27272727272727"></circle><circle fill="#74C7D3" r="2" cx="246.95454545454544" cy="117.27272727272727"></circle><circle fill="#74C7D3" r="2" cx="261.3636363636364" cy="117.27272727272727"></circle><circle fill="#74C7D3" r="2" cx="275.77272727272725" cy="117.27272727272727"></circle><circle fill="#74C7D3" r="2" cx="290.1818181818182" cy="117.27272727272727"></circle><circle fill="#74C7D3" r="2" cx="304.59090909090907" cy="117.27272727272727"></circle><circle fill="#74C7D3" r="2" cx="319" cy="117.27272727272727"></circle><circle fill="#74C7D3" r="2" cx="333.4090909090909" cy="117.27272727272727"></circle><circle fill="#74C7D3" r="2" cx="347.8181818181818" cy="117.27272727272727"></circle><circle fill="#74C7D3" r="2" cx="362.2272727272727" cy="117.27272727272727"></circle><circle fill="#74C7D3" r="2" cx="376.6363636363636" cy="117.27272727272727"></circle><circle fill="#74C7D3" r="2" cx="391.0454545454545" cy="117.27272727272727"></circle><circle fill="#74C7D3" r="2" cx="405.45454545454544" cy="117.27272727272727"></circle><circle fill="#74C7D3" r="2" cx="419.8636363636363" cy="117.27272727272727"></circle><circle fill="#74C7D3" r="2" cx="434.27272727272725" cy="117.27272727272727"></circle><circle fill="#74C7D3" r="2" cx="448.68181818181813" cy="117.27272727272727"></circle><circle fill="#74C7D3" r="2" cx="463.09090909090907" cy="117.27272727272727"></circle><circle fill="#74C7D3" r="2" cx="477.5" cy="117.27272727272727"></circle><circle fill="#74C7D3" r="2" cx="491.9090909090909" cy="117.27272727272727"></circle><circle fill="#74C7D3" r="2" cx="506.3181818181818" cy="117.27272727272727"></circle><circle fill="#74C7D3" r="2" cx="520.7272727272727" cy="117.27272727272727"></circle><circle fill="#74C7D3" r="2" cx="535.1363636363636" cy="117.27272727272727"></circle><circle fill="#74C7D3" r="2" cx="549.5454545454545" cy="117.27272727272727"></circle><circle fill="#74C7D3" r="2" cx="563.9545454545454" cy="117.27272727272727"></circle><circle fill="#74C7D3" r="2" cx="578.3636363636364" cy="117.27272727272727"></circle><circle fill="#74C7D3" r="2" cx="592.7727272727273" cy="117.27272727272727"></circle><circle fill="#74C7D3" r="2" cx="607.1818181818181" cy="117.27272727272727"></circle><circle fill="#74C7D3" r="2" cx="621.590909090909" cy="117.27272727272727"></circle><circle fill="#74C7D3" r="2" cx="636" cy="117.27272727272727"></circle><circle fill="#74C7D3" r="2" cx="2" cy="131.6818181818182"></circle><circle fill="#74C7D3" r="2" cx="16.409090909090907" cy="131.6818181818182"></circle><circle fill="#74C7D3" r="2" cx="30.818181818181817" cy="131.6818181818182"></circle><circle fill="#74C7D3" r="2" cx="45.22727272727273" cy="131.6818181818182"></circle><circle fill="#74C7D3" r="2" cx="59.63636363636363" cy="131.6818181818182"></circle><circle fill="#74C7D3" r="2" cx="74.04545454545455" cy="131.6818181818182"></circle><circle fill="#74C7D3" r="2" cx="88.45454545454545" cy="131.6818181818182"></circle><circle fill="#74C7D3" r="2" cx="102.86363636363636" cy="131.6818181818182"></circle><circle fill="#74C7D3" r="2" cx="117.27272727272727" cy="131.6818181818182"></circle><circle fill="#74C7D3" r="2" cx="131.6818181818182" cy="131.6818181818182"></circle><circle fill="#74C7D3" r="2" cx="146.0909090909091" cy="131.6818181818182"></circle><circle fill="#74C7D3" r="2" cx="160.5" cy="131.6818181818182"></circle><circle fill="#74C7D3" r="2" cx="174.9090909090909" cy="131.6818181818182"></circle><circle fill="#74C7D3" r="2" cx="189.3181818181818" cy="131.6818181818182"></circle><circle fill="#74C7D3" r="2" cx="203.72727272727272" cy="131.6818181818182"></circle><circle fill="#74C7D3" r="2" cx="218.13636363636363" cy="131.6818181818182"></circle><circle fill="#74C7D3" r="2" cx="232.54545454545453" cy="131.6818181818182"></circle><circle fill="#74C7D3" r="2" cx="246.95454545454544" cy="131.6818181818182"></circle><circle fill="#74C7D3" r="2" cx="261.3636363636364" cy="131.6818181818182"></circle><circle fill="#74C7D3" r="2" cx="275.77272727272725" cy="131.6818181818182"></circle><circle fill="#74C7D3" r="2" cx="290.1818181818182" cy="131.6818181818182"></circle><circle fill="#74C7D3" r="2" cx="304.59090909090907" cy="131.6818181818182"></circle><circle fill="#74C7D3" r="2" cx="319" cy="131.6818181818182"></circle><circle fill="#74C7D3" r="2" cx="333.4090909090909" cy="131.6818181818182"></circle><circle fill="#74C7D3" r="2" cx="347.8181818181818" cy="131.6818181818182"></circle><circle fill="#74C7D3" r="2" cx="362.2272727272727" cy="131.6818181818182"></circle><circle fill="#74C7D3" r="2" cx="376.6363636363636" cy="131.6818181818182"></circle><circle fill="#74C7D3" r="2" cx="391.0454545454545" cy="131.6818181818182"></circle><circle fill="#74C7D3" r="2" cx="405.45454545454544" cy="131.6818181818182"></circle><circle fill="#74C7D3" r="2" cx="419.8636363636363" cy="131.6818181818182"></circle><circle fill="#74C7D3" r="2" cx="434.27272727272725" cy="131.6818181818182"></circle><circle fill="#74C7D3" r="2" cx="448.68181818181813" cy="131.6818181818182"></circle><circle fill="#74C7D3" r="2" cx="463.09090909090907" cy="131.6818181818182"></circle><circle fill="#74C7D3" r="2" cx="477.5" cy="131.6818181818182"></circle><circle fill="#74C7D3" r="2" cx="491.9090909090909" cy="131.6818181818182"></circle><circle fill="#74C7D3" r="2" cx="506.3181818181818" cy="131.6818181818182"></circle><circle fill="#74C7D3" r="2" cx="520.7272727272727" cy="131.6818181818182"></circle><circle fill="#74C7D3" r="2" cx="535.1363636363636" cy="131.6818181818182"></circle><circle fill="#74C7D3" r="2" cx="549.5454545454545" cy="131.6818181818182"></circle><circle fill="#74C7D3" r="2" cx="563.9545454545454" cy="131.6818181818182"></circle><circle fill="#74C7D3" r="2" cx="578.3636363636364" cy="131.6818181818182"></circle><circle fill="#74C7D3" r="2" cx="592.7727272727273" cy="131.6818181818182"></circle><circle fill="#74C7D3" r="2" cx="607.1818181818181" cy="131.6818181818182"></circle><circle fill="#74C7D3" r="2" cx="621.590909090909" cy="131.6818181818182"></circle><circle fill="#74C7D3" r="2" cx="636" cy="131.6818181818182"></circle><circle fill="#74C7D3" r="2" cx="2" cy="146.0909090909091"></circle><circle fill="#74C7D3" r="2" cx="16.409090909090907" cy="146.0909090909091"></circle><circle fill="#74C7D3" r="2" cx="30.818181818181817" cy="146.0909090909091"></circle><circle fill="#74C7D3" r="2" cx="45.22727272727273" cy="146.0909090909091"></circle><circle fill="#74C7D3" r="2" cx="59.63636363636363" cy="146.0909090909091"></circle><circle fill="#74C7D3" r="2" cx="74.04545454545455" cy="146.0909090909091"></circle><circle fill="#74C7D3" r="2" cx="88.45454545454545" cy="146.0909090909091"></circle><circle fill="#74C7D3" r="2" cx="102.86363636363636" cy="146.0909090909091"></circle><circle fill="#74C7D3" r="2" cx="117.27272727272727" cy="146.0909090909091"></circle><circle fill="#74C7D3" r="2" cx="131.6818181818182" cy="146.0909090909091"></circle><circle fill="#74C7D3" r="2" cx="146.0909090909091" cy="146.0909090909091"></circle><circle fill="#74C7D3" r="2" cx="160.5" cy="146.0909090909091"></circle><circle fill="#74C7D3" r="2" cx="174.9090909090909" cy="146.0909090909091"></circle><circle fill="#74C7D3" r="2" cx="189.3181818181818" cy="146.0909090909091"></circle><circle fill="#74C7D3" r="2" cx="203.72727272727272" cy="146.0909090909091"></circle><circle fill="#74C7D3" r="2" cx="218.13636363636363" cy="146.0909090909091"></circle><circle fill="#74C7D3" r="2" cx="232.54545454545453" cy="146.0909090909091"></circle><circle fill="#74C7D3" r="2" cx="246.95454545454544" cy="146.0909090909091"></circle><circle fill="#74C7D3" r="2" cx="261.3636363636364" cy="146.0909090909091"></circle><circle fill="#74C7D3" r="2" cx="275.77272727272725" cy="146.0909090909091"></circle><circle fill="#74C7D3" r="2" cx="290.1818181818182" cy="146.0909090909091"></circle><circle fill="#74C7D3" r="2" cx="304.59090909090907" cy="146.0909090909091"></circle><circle fill="#74C7D3" r="2" cx="319" cy="146.0909090909091"></circle><circle fill="#74C7D3" r="2" cx="333.4090909090909" cy="146.0909090909091"></circle><circle fill="#74C7D3" r="2" cx="347.8181818181818" cy="146.0909090909091"></circle><circle fill="#74C7D3" r="2" cx="362.2272727272727" cy="146.0909090909091"></circle><circle fill="#74C7D3" r="2" cx="376.6363636363636" cy="146.0909090909091"></circle><circle fill="#74C7D3" r="2" cx="391.0454545454545" cy="146.0909090909091"></circle><circle fill="#74C7D3" r="2" cx="405.45454545454544" cy="146.0909090909091"></circle><circle fill="#74C7D3" r="2" cx="419.8636363636363" cy="146.0909090909091"></circle><circle fill="#74C7D3" r="2" cx="434.27272727272725" cy="146.0909090909091"></circle><circle fill="#74C7D3" r="2" cx="448.68181818181813" cy="146.0909090909091"></circle><circle fill="#74C7D3" r="2" cx="463.09090909090907" cy="146.0909090909091"></circle><circle fill="#74C7D3" r="2" cx="477.5" cy="146.0909090909091"></circle><circle fill="#74C7D3" r="2" cx="491.9090909090909" cy="146.0909090909091"></circle><circle fill="#74C7D3" r="2" cx="506.3181818181818" cy="146.0909090909091"></circle><circle fill="#74C7D3" r="2" cx="520.7272727272727" cy="146.0909090909091"></circle><circle fill="#74C7D3" r="2" cx="535.1363636363636" cy="146.0909090909091"></circle><circle fill="#74C7D3" r="2" cx="549.5454545454545" cy="146.0909090909091"></circle><circle fill="#74C7D3" r="2" cx="563.9545454545454" cy="146.0909090909091"></circle><circle fill="#74C7D3" r="2" cx="578.3636363636364" cy="146.0909090909091"></circle><circle fill="#74C7D3" r="2" cx="592.7727272727273" cy="146.0909090909091"></circle><circle fill="#74C7D3" r="2" cx="607.1818181818181" cy="146.0909090909091"></circle><circle fill="#74C7D3" r="2" cx="621.590909090909" cy="146.0909090909091"></circle><circle fill="#74C7D3" r="2" cx="636" cy="146.0909090909091"></circle><circle fill="#74C7D3" r="2" cx="2" cy="160.5"></circle><circle fill="#74C7D3" r="2" cx="16.409090909090907" cy="160.5"></circle><circle fill="#74C7D3" r="2" cx="30.818181818181817" cy="160.5"></circle><circle fill="#74C7D3" r="2" cx="45.22727272727273" cy="160.5"></circle><circle fill="#74C7D3" r="2" cx="59.63636363636363" cy="160.5"></circle><circle fill="#74C7D3" r="2" cx="74.04545454545455" cy="160.5"></circle><circle fill="#74C7D3" r="2" cx="88.45454545454545" cy="160.5"></circle><circle fill="#74C7D3" r="2" cx="102.86363636363636" cy="160.5"></circle><circle fill="#74C7D3" r="2" cx="117.27272727272727" cy="160.5"></circle><circle fill="#74C7D3" r="2" cx="131.6818181818182" cy="160.5"></circle><circle fill="#74C7D3" r="2" cx="146.0909090909091" cy="160.5"></circle><circle fill="#74C7D3" r="2" cx="160.5" cy="160.5"></circle><circle fill="#74C7D3" r="2" cx="174.9090909090909" cy="160.5"></circle><circle fill="#74C7D3" r="2" cx="189.3181818181818" cy="160.5"></circle><circle fill="#74C7D3" r="2" cx="203.72727272727272" cy="160.5"></circle><circle fill="#74C7D3" r="2" cx="218.13636363636363" cy="160.5"></circle><circle fill="#74C7D3" r="2" cx="232.54545454545453" cy="160.5"></circle><circle fill="#74C7D3" r="2" cx="246.95454545454544" cy="160.5"></circle><circle fill="#74C7D3" r="2" cx="261.3636363636364" cy="160.5"></circle><circle fill="#74C7D3" r="2" cx="275.77272727272725" cy="160.5"></circle><circle fill="#74C7D3" r="2" cx="290.1818181818182" cy="160.5"></circle><circle fill="#74C7D3" r="2" cx="304.59090909090907" cy="160.5"></circle><circle fill="#74C7D3" r="2" cx="319" cy="160.5"></circle><circle fill="#74C7D3" r="2" cx="333.4090909090909" cy="160.5"></circle><circle fill="#74C7D3" r="2" cx="347.8181818181818" cy="160.5"></circle><circle fill="#74C7D3" r="2" cx="362.2272727272727" cy="160.5"></circle><circle fill="#74C7D3" r="2" cx="376.6363636363636" cy="160.5"></circle><circle fill="#74C7D3" r="2" cx="391.0454545454545" cy="160.5"></circle><circle fill="#74C7D3" r="2" cx="405.45454545454544" cy="160.5"></circle><circle fill="#74C7D3" r="2" cx="419.8636363636363" cy="160.5"></circle><circle fill="#74C7D3" r="2" cx="434.27272727272725" cy="160.5"></circle><circle fill="#74C7D3" r="2" cx="448.68181818181813" cy="160.5"></circle><circle fill="#74C7D3" r="2" cx="463.09090909090907" cy="160.5"></circle><circle fill="#74C7D3" r="2" cx="477.5" cy="160.5"></circle><circle fill="#74C7D3" r="2" cx="491.9090909090909" cy="160.5"></circle><circle fill="#74C7D3" r="2" cx="506.3181818181818" cy="160.5"></circle><circle fill="#74C7D3" r="2" cx="520.7272727272727" cy="160.5"></circle><circle fill="#74C7D3" r="2" cx="535.1363636363636" cy="160.5"></circle><circle fill="#74C7D3" r="2" cx="549.5454545454545" cy="160.5"></circle><circle fill="#74C7D3" r="2" cx="563.9545454545454" cy="160.5"></circle><circle fill="#74C7D3" r="2" cx="578.3636363636364" cy="160.5"></circle><circle fill="#74C7D3" r="2" cx="592.7727272727273" cy="160.5"></circle><circle fill="#74C7D3" r="2" cx="607.1818181818181" cy="160.5"></circle><circle fill="#74C7D3" r="2" cx="621.590909090909" cy="160.5"></circle><circle fill="#74C7D3" r="2" cx="636" cy="160.5"></circle><circle fill="#74C7D3" r="2" cx="2" cy="174.9090909090909"></circle><circle fill="#74C7D3" r="2" cx="16.409090909090907" cy="174.9090909090909"></circle><circle fill="#74C7D3" r="2" cx="30.818181818181817" cy="174.9090909090909"></circle><circle fill="#74C7D3" r="2" cx="45.22727272727273" cy="174.9090909090909"></circle><circle fill="#74C7D3" r="2" cx="59.63636363636363" cy="174.9090909090909"></circle><circle fill="#74C7D3" r="2" cx="74.04545454545455" cy="174.9090909090909"></circle><circle fill="#74C7D3" r="2" cx="88.45454545454545" cy="174.9090909090909"></circle><circle fill="#74C7D3" r="2" cx="102.86363636363636" cy="174.9090909090909"></circle><circle fill="#74C7D3" r="2" cx="117.27272727272727" cy="174.9090909090909"></circle><circle fill="#74C7D3" r="2" cx="131.6818181818182" cy="174.9090909090909"></circle><circle fill="#74C7D3" r="2" cx="146.0909090909091" cy="174.9090909090909"></circle><circle fill="#74C7D3" r="2" cx="160.5" cy="174.9090909090909"></circle><circle fill="#74C7D3" r="2" cx="174.9090909090909" cy="174.9090909090909"></circle><circle fill="#74C7D3" r="2" cx="189.3181818181818" cy="174.9090909090909"></circle><circle fill="#74C7D3" r="2" cx="203.72727272727272" cy="174.9090909090909"></circle><circle fill="#74C7D3" r="2" cx="218.13636363636363" cy="174.9090909090909"></circle><circle fill="#74C7D3" r="2" cx="232.54545454545453" cy="174.9090909090909"></circle><circle fill="#74C7D3" r="2" cx="246.95454545454544" cy="174.9090909090909"></circle><circle fill="#74C7D3" r="2" cx="261.3636363636364" cy="174.9090909090909"></circle><circle fill="#74C7D3" r="2" cx="275.77272727272725" cy="174.9090909090909"></circle><circle fill="#74C7D3" r="2" cx="290.1818181818182" cy="174.9090909090909"></circle><circle fill="#74C7D3" r="2" cx="304.59090909090907" cy="174.9090909090909"></circle><circle fill="#74C7D3" r="2" cx="319" cy="174.9090909090909"></circle><circle fill="#74C7D3" r="2" cx="333.4090909090909" cy="174.9090909090909"></circle><circle fill="#74C7D3" r="2" cx="347.8181818181818" cy="174.9090909090909"></circle><circle fill="#74C7D3" r="2" cx="362.2272727272727" cy="174.9090909090909"></circle><circle fill="#74C7D3" r="2" cx="376.6363636363636" cy="174.9090909090909"></circle><circle fill="#74C7D3" r="2" cx="391.0454545454545" cy="174.9090909090909"></circle><circle fill="#74C7D3" r="2" cx="405.45454545454544" cy="174.9090909090909"></circle><circle fill="#74C7D3" r="2" cx="419.8636363636363" cy="174.9090909090909"></circle><circle fill="#74C7D3" r="2" cx="434.27272727272725" cy="174.9090909090909"></circle><circle fill="#74C7D3" r="2" cx="448.68181818181813" cy="174.9090909090909"></circle><circle fill="#74C7D3" r="2" cx="463.09090909090907" cy="174.9090909090909"></circle><circle fill="#74C7D3" r="2" cx="477.5" cy="174.9090909090909"></circle><circle fill="#74C7D3" r="2" cx="491.9090909090909" cy="174.9090909090909"></circle><circle fill="#74C7D3" r="2" cx="506.3181818181818" cy="174.9090909090909"></circle><circle fill="#74C7D3" r="2" cx="520.7272727272727" cy="174.9090909090909"></circle><circle fill="#74C7D3" r="2" cx="535.1363636363636" cy="174.9090909090909"></circle><circle fill="#74C7D3" r="2" cx="549.5454545454545" cy="174.9090909090909"></circle><circle fill="#74C7D3" r="2" cx="563.9545454545454" cy="174.9090909090909"></circle><circle fill="#74C7D3" r="2" cx="578.3636363636364" cy="174.9090909090909"></circle><circle fill="#74C7D3" r="2" cx="592.7727272727273" cy="174.9090909090909"></circle><circle fill="#74C7D3" r="2" cx="607.1818181818181" cy="174.9090909090909"></circle><circle fill="#74C7D3" r="2" cx="621.590909090909" cy="174.9090909090909"></circle><circle fill="#74C7D3" r="2" cx="636" cy="174.9090909090909"></circle><circle fill="#74C7D3" r="2" cx="2" cy="189.3181818181818"></circle><circle fill="#74C7D3" r="2" cx="16.409090909090907" cy="189.3181818181818"></circle><circle fill="#74C7D3" r="2" cx="30.818181818181817" cy="189.3181818181818"></circle><circle fill="#74C7D3" r="2" cx="45.22727272727273" cy="189.3181818181818"></circle><circle fill="#74C7D3" r="2" cx="59.63636363636363" cy="189.3181818181818"></circle><circle fill="#74C7D3" r="2" cx="74.04545454545455" cy="189.3181818181818"></circle><circle fill="#74C7D3" r="2" cx="88.45454545454545" cy="189.3181818181818"></circle><circle fill="#74C7D3" r="2" cx="102.86363636363636" cy="189.3181818181818"></circle><circle fill="#74C7D3" r="2" cx="117.27272727272727" cy="189.3181818181818"></circle><circle fill="#74C7D3" r="2" cx="131.6818181818182" cy="189.3181818181818"></circle><circle fill="#74C7D3" r="2" cx="146.0909090909091" cy="189.3181818181818"></circle><circle fill="#74C7D3" r="2" cx="160.5" cy="189.3181818181818"></circle><circle fill="#74C7D3" r="2" cx="174.9090909090909" cy="189.3181818181818"></circle><circle fill="#74C7D3" r="2" cx="189.3181818181818" cy="189.3181818181818"></circle><circle fill="#74C7D3" r="2" cx="203.72727272727272" cy="189.3181818181818"></circle><circle fill="#74C7D3" r="2" cx="218.13636363636363" cy="189.3181818181818"></circle><circle fill="#74C7D3" r="2" cx="232.54545454545453" cy="189.3181818181818"></circle><circle fill="#74C7D3" r="2" cx="246.95454545454544" cy="189.3181818181818"></circle><circle fill="#74C7D3" r="2" cx="261.3636363636364" cy="189.3181818181818"></circle><circle fill="#74C7D3" r="2" cx="275.77272727272725" cy="189.3181818181818"></circle><circle fill="#74C7D3" r="2" cx="290.1818181818182" cy="189.3181818181818"></circle><circle fill="#74C7D3" r="2" cx="304.59090909090907" cy="189.3181818181818"></circle><circle fill="#74C7D3" r="2" cx="319" cy="189.3181818181818"></circle><circle fill="#74C7D3" r="2" cx="333.4090909090909" cy="189.3181818181818"></circle><circle fill="#74C7D3" r="2" cx="347.8181818181818" cy="189.3181818181818"></circle><circle fill="#74C7D3" r="2" cx="362.2272727272727" cy="189.3181818181818"></circle><circle fill="#74C7D3" r="2" cx="376.6363636363636" cy="189.3181818181818"></circle><circle fill="#74C7D3" r="2" cx="391.0454545454545" cy="189.3181818181818"></circle><circle fill="#74C7D3" r="2" cx="405.45454545454544" cy="189.3181818181818"></circle><circle fill="#74C7D3" r="2" cx="419.8636363636363" cy="189.3181818181818"></circle><circle fill="#74C7D3" r="2" cx="434.27272727272725" cy="189.3181818181818"></circle><circle fill="#74C7D3" r="2" cx="448.68181818181813" cy="189.3181818181818"></circle><circle fill="#74C7D3" r="2" cx="463.09090909090907" cy="189.3181818181818"></circle><circle fill="#74C7D3" r="2" cx="477.5" cy="189.3181818181818"></circle><circle fill="#74C7D3" r="2" cx="491.9090909090909" cy="189.3181818181818"></circle><circle fill="#74C7D3" r="2" cx="506.3181818181818" cy="189.3181818181818"></circle><circle fill="#74C7D3" r="2" cx="520.7272727272727" cy="189.3181818181818"></circle><circle fill="#74C7D3" r="2" cx="535.1363636363636" cy="189.3181818181818"></circle><circle fill="#74C7D3" r="2" cx="549.5454545454545" cy="189.3181818181818"></circle><circle fill="#74C7D3" r="2" cx="563.9545454545454" cy="189.3181818181818"></circle><circle fill="#74C7D3" r="2" cx="578.3636363636364" cy="189.3181818181818"></circle><circle fill="#74C7D3" r="2" cx="592.7727272727273" cy="189.3181818181818"></circle><circle fill="#74C7D3" r="2" cx="607.1818181818181" cy="189.3181818181818"></circle><circle fill="#74C7D3" r="2" cx="621.590909090909" cy="189.3181818181818"></circle><circle fill="#74C7D3" r="2" cx="636" cy="189.3181818181818"></circle><circle fill="#74C7D3" r="2" cx="2" cy="203.72727272727272"></circle><circle fill="#74C7D3" r="2" cx="16.409090909090907" cy="203.72727272727272"></circle><circle fill="#74C7D3" r="2" cx="30.818181818181817" cy="203.72727272727272"></circle><circle fill="#74C7D3" r="2" cx="45.22727272727273" cy="203.72727272727272"></circle><circle fill="#74C7D3" r="2" cx="59.63636363636363" cy="203.72727272727272"></circle><circle fill="#74C7D3" r="2" cx="74.04545454545455" cy="203.72727272727272"></circle><circle fill="#74C7D3" r="2" cx="88.45454545454545" cy="203.72727272727272"></circle><circle fill="#74C7D3" r="2" cx="102.86363636363636" cy="203.72727272727272"></circle><circle fill="#74C7D3" r="2" cx="117.27272727272727" cy="203.72727272727272"></circle><circle fill="#74C7D3" r="2" cx="131.6818181818182" cy="203.72727272727272"></circle><circle fill="#74C7D3" r="2" cx="146.0909090909091" cy="203.72727272727272"></circle><circle fill="#74C7D3" r="2" cx="160.5" cy="203.72727272727272"></circle><circle fill="#74C7D3" r="2" cx="174.9090909090909" cy="203.72727272727272"></circle><circle fill="#74C7D3" r="2" cx="189.3181818181818" cy="203.72727272727272"></circle><circle fill="#74C7D3" r="2" cx="203.72727272727272" cy="203.72727272727272"></circle><circle fill="#74C7D3" r="2" cx="218.13636363636363" cy="203.72727272727272"></circle><circle fill="#74C7D3" r="2" cx="232.54545454545453" cy="203.72727272727272"></circle><circle fill="#74C7D3" r="2" cx="246.95454545454544" cy="203.72727272727272"></circle><circle fill="#74C7D3" r="2" cx="261.3636363636364" cy="203.72727272727272"></circle><circle fill="#74C7D3" r="2" cx="275.77272727272725" cy="203.72727272727272"></circle><circle fill="#74C7D3" r="2" cx="290.1818181818182" cy="203.72727272727272"></circle><circle fill="#74C7D3" r="2" cx="304.59090909090907" cy="203.72727272727272"></circle><circle fill="#74C7D3" r="2" cx="319" cy="203.72727272727272"></circle><circle fill="#74C7D3" r="2" cx="333.4090909090909" cy="203.72727272727272"></circle><circle fill="#74C7D3" r="2" cx="347.8181818181818" cy="203.72727272727272"></circle><circle fill="#74C7D3" r="2" cx="362.2272727272727" cy="203.72727272727272"></circle><circle fill="#74C7D3" r="2" cx="376.6363636363636" cy="203.72727272727272"></circle><circle fill="#74C7D3" r="2" cx="391.0454545454545" cy="203.72727272727272"></circle><circle fill="#74C7D3" r="2" cx="405.45454545454544" cy="203.72727272727272"></circle><circle fill="#74C7D3" r="2" cx="419.8636363636363" cy="203.72727272727272"></circle><circle fill="#74C7D3" r="2" cx="434.27272727272725" cy="203.72727272727272"></circle><circle fill="#74C7D3" r="2" cx="448.68181818181813" cy="203.72727272727272"></circle><circle fill="#74C7D3" r="2" cx="463.09090909090907" cy="203.72727272727272"></circle><circle fill="#74C7D3" r="2" cx="477.5" cy="203.72727272727272"></circle><circle fill="#74C7D3" r="2" cx="491.9090909090909" cy="203.72727272727272"></circle><circle fill="#74C7D3" r="2" cx="506.3181818181818" cy="203.72727272727272"></circle><circle fill="#74C7D3" r="2" cx="520.7272727272727" cy="203.72727272727272"></circle><circle fill="#74C7D3" r="2" cx="535.1363636363636" cy="203.72727272727272"></circle><circle fill="#74C7D3" r="2" cx="549.5454545454545" cy="203.72727272727272"></circle><circle fill="#74C7D3" r="2" cx="563.9545454545454" cy="203.72727272727272"></circle><circle fill="#74C7D3" r="2" cx="578.3636363636364" cy="203.72727272727272"></circle><circle fill="#74C7D3" r="2" cx="592.7727272727273" cy="203.72727272727272"></circle><circle fill="#74C7D3" r="2" cx="607.1818181818181" cy="203.72727272727272"></circle><circle fill="#74C7D3" r="2" cx="621.590909090909" cy="203.72727272727272"></circle><circle fill="#74C7D3" r="2" cx="636" cy="203.72727272727272"></circle><circle fill="#74C7D3" r="2" cx="2" cy="218.13636363636363"></circle><circle fill="#74C7D3" r="2" cx="16.409090909090907" cy="218.13636363636363"></circle><circle fill="#74C7D3" r="2" cx="30.818181818181817" cy="218.13636363636363"></circle><circle fill="#74C7D3" r="2" cx="45.22727272727273" cy="218.13636363636363"></circle><circle fill="#74C7D3" r="2" cx="59.63636363636363" cy="218.13636363636363"></circle><circle fill="#74C7D3" r="2" cx="74.04545454545455" cy="218.13636363636363"></circle><circle fill="#74C7D3" r="2" cx="88.45454545454545" cy="218.13636363636363"></circle><circle fill="#74C7D3" r="2" cx="102.86363636363636" cy="218.13636363636363"></circle><circle fill="#74C7D3" r="2" cx="117.27272727272727" cy="218.13636363636363"></circle><circle fill="#74C7D3" r="2" cx="131.6818181818182" cy="218.13636363636363"></circle><circle fill="#74C7D3" r="2" cx="146.0909090909091" cy="218.13636363636363"></circle><circle fill="#74C7D3" r="2" cx="160.5" cy="218.13636363636363"></circle><circle fill="#74C7D3" r="2" cx="174.9090909090909" cy="218.13636363636363"></circle><circle fill="#74C7D3" r="2" cx="189.3181818181818" cy="218.13636363636363"></circle><circle fill="#74C7D3" r="2" cx="203.72727272727272" cy="218.13636363636363"></circle><circle fill="#74C7D3" r="2" cx="218.13636363636363" cy="218.13636363636363"></circle><circle fill="#74C7D3" r="2" cx="232.54545454545453" cy="218.13636363636363"></circle><circle fill="#74C7D3" r="2" cx="246.95454545454544" cy="218.13636363636363"></circle><circle fill="#74C7D3" r="2" cx="261.3636363636364" cy="218.13636363636363"></circle><circle fill="#74C7D3" r="2" cx="275.77272727272725" cy="218.13636363636363"></circle><circle fill="#74C7D3" r="2" cx="290.1818181818182" cy="218.13636363636363"></circle><circle fill="#74C7D3" r="2" cx="304.59090909090907" cy="218.13636363636363"></circle><circle fill="#74C7D3" r="2" cx="319" cy="218.13636363636363"></circle><circle fill="#74C7D3" r="2" cx="333.4090909090909" cy="218.13636363636363"></circle><circle fill="#74C7D3" r="2" cx="347.8181818181818" cy="218.13636363636363"></circle><circle fill="#74C7D3" r="2" cx="362.2272727272727" cy="218.13636363636363"></circle><circle fill="#74C7D3" r="2" cx="376.6363636363636" cy="218.13636363636363"></circle><circle fill="#74C7D3" r="2" cx="391.0454545454545" cy="218.13636363636363"></circle><circle fill="#74C7D3" r="2" cx="405.45454545454544" cy="218.13636363636363"></circle><circle fill="#74C7D3" r="2" cx="419.8636363636363" cy="218.13636363636363"></circle><circle fill="#74C7D3" r="2" cx="434.27272727272725" cy="218.13636363636363"></circle><circle fill="#74C7D3" r="2" cx="448.68181818181813" cy="218.13636363636363"></circle><circle fill="#74C7D3" r="2" cx="463.09090909090907" cy="218.13636363636363"></circle><circle fill="#74C7D3" r="2" cx="477.5" cy="218.13636363636363"></circle><circle fill="#74C7D3" r="2" cx="491.9090909090909" cy="218.13636363636363"></circle><circle fill="#74C7D3" r="2" cx="506.3181818181818" cy="218.13636363636363"></circle><circle fill="#74C7D3" r="2" cx="520.7272727272727" cy="218.13636363636363"></circle><circle fill="#74C7D3" r="2" cx="535.1363636363636" cy="218.13636363636363"></circle><circle fill="#74C7D3" r="2" cx="549.5454545454545" cy="218.13636363636363"></circle><circle fill="#74C7D3" r="2" cx="563.9545454545454" cy="218.13636363636363"></circle><circle fill="#74C7D3" r="2" cx="578.3636363636364" cy="218.13636363636363"></circle><circle fill="#74C7D3" r="2" cx="592.7727272727273" cy="218.13636363636363"></circle><circle fill="#74C7D3" r="2" cx="607.1818181818181" cy="218.13636363636363"></circle><circle fill="#74C7D3" r="2" cx="621.590909090909" cy="218.13636363636363"></circle><circle fill="#74C7D3" r="2" cx="636" cy="218.13636363636363"></circle><circle fill="#74C7D3" r="2" cx="2" cy="232.54545454545453"></circle><circle fill="#74C7D3" r="2" cx="16.409090909090907" cy="232.54545454545453"></circle><circle fill="#74C7D3" r="2" cx="30.818181818181817" cy="232.54545454545453"></circle><circle fill="#74C7D3" r="2" cx="45.22727272727273" cy="232.54545454545453"></circle><circle fill="#74C7D3" r="2" cx="59.63636363636363" cy="232.54545454545453"></circle><circle fill="#74C7D3" r="2" cx="74.04545454545455" cy="232.54545454545453"></circle><circle fill="#74C7D3" r="2" cx="88.45454545454545" cy="232.54545454545453"></circle><circle fill="#74C7D3" r="2" cx="102.86363636363636" cy="232.54545454545453"></circle><circle fill="#74C7D3" r="2" cx="117.27272727272727" cy="232.54545454545453"></circle><circle fill="#74C7D3" r="2" cx="131.6818181818182" cy="232.54545454545453"></circle><circle fill="#74C7D3" r="2" cx="146.0909090909091" cy="232.54545454545453"></circle><circle fill="#74C7D3" r="2" cx="160.5" cy="232.54545454545453"></circle><circle fill="#74C7D3" r="2" cx="174.9090909090909" cy="232.54545454545453"></circle><circle fill="#74C7D3" r="2" cx="189.3181818181818" cy="232.54545454545453"></circle><circle fill="#74C7D3" r="2" cx="203.72727272727272" cy="232.54545454545453"></circle><circle fill="#74C7D3" r="2" cx="218.13636363636363" cy="232.54545454545453"></circle><circle fill="#74C7D3" r="2" cx="232.54545454545453" cy="232.54545454545453"></circle><circle fill="#74C7D3" r="2" cx="246.95454545454544" cy="232.54545454545453"></circle><circle fill="#74C7D3" r="2" cx="261.3636363636364" cy="232.54545454545453"></circle><circle fill="#74C7D3" r="2" cx="275.77272727272725" cy="232.54545454545453"></circle><circle fill="#74C7D3" r="2" cx="290.1818181818182" cy="232.54545454545453"></circle><circle fill="#74C7D3" r="2" cx="304.59090909090907" cy="232.54545454545453"></circle><circle fill="#74C7D3" r="2" cx="319" cy="232.54545454545453"></circle><circle fill="#74C7D3" r="2" cx="333.4090909090909" cy="232.54545454545453"></circle><circle fill="#74C7D3" r="2" cx="347.8181818181818" cy="232.54545454545453"></circle><circle fill="#74C7D3" r="2" cx="362.2272727272727" cy="232.54545454545453"></circle><circle fill="#74C7D3" r="2" cx="376.6363636363636" cy="232.54545454545453"></circle><circle fill="#74C7D3" r="2" cx="391.0454545454545" cy="232.54545454545453"></circle><circle fill="#74C7D3" r="2" cx="405.45454545454544" cy="232.54545454545453"></circle><circle fill="#74C7D3" r="2" cx="419.8636363636363" cy="232.54545454545453"></circle><circle fill="#74C7D3" r="2" cx="434.27272727272725" cy="232.54545454545453"></circle><circle fill="#74C7D3" r="2" cx="448.68181818181813" cy="232.54545454545453"></circle><circle fill="#74C7D3" r="2" cx="463.09090909090907" cy="232.54545454545453"></circle><circle fill="#74C7D3" r="2" cx="477.5" cy="232.54545454545453"></circle><circle fill="#74C7D3" r="2" cx="491.9090909090909" cy="232.54545454545453"></circle><circle fill="#74C7D3" r="2" cx="506.3181818181818" cy="232.54545454545453"></circle><circle fill="#74C7D3" r="2" cx="520.7272727272727" cy="232.54545454545453"></circle><circle fill="#74C7D3" r="2" cx="535.1363636363636" cy="232.54545454545453"></circle><circle fill="#74C7D3" r="2" cx="549.5454545454545" cy="232.54545454545453"></circle><circle fill="#74C7D3" r="2" cx="563.9545454545454" cy="232.54545454545453"></circle><circle fill="#74C7D3" r="2" cx="578.3636363636364" cy="232.54545454545453"></circle><circle fill="#74C7D3" r="2" cx="592.7727272727273" cy="232.54545454545453"></circle><circle fill="#74C7D3" r="2" cx="607.1818181818181" cy="232.54545454545453"></circle><circle fill="#74C7D3" r="2" cx="621.590909090909" cy="232.54545454545453"></circle><circle fill="#74C7D3" r="2" cx="636" cy="232.54545454545453"></circle><circle fill="#74C7D3" r="2" cx="2" cy="246.95454545454544"></circle><circle fill="#74C7D3" r="2" cx="16.409090909090907" cy="246.95454545454544"></circle><circle fill="#74C7D3" r="2" cx="30.818181818181817" cy="246.95454545454544"></circle><circle fill="#74C7D3" r="2" cx="45.22727272727273" cy="246.95454545454544"></circle><circle fill="#74C7D3" r="2" cx="59.63636363636363" cy="246.95454545454544"></circle><circle fill="#74C7D3" r="2" cx="74.04545454545455" cy="246.95454545454544"></circle><circle fill="#74C7D3" r="2" cx="88.45454545454545" cy="246.95454545454544"></circle><circle fill="#74C7D3" r="2" cx="102.86363636363636" cy="246.95454545454544"></circle><circle fill="#74C7D3" r="2" cx="117.27272727272727" cy="246.95454545454544"></circle><circle fill="#74C7D3" r="2" cx="131.6818181818182" cy="246.95454545454544"></circle><circle fill="#74C7D3" r="2" cx="146.0909090909091" cy="246.95454545454544"></circle><circle fill="#74C7D3" r="2" cx="160.5" cy="246.95454545454544"></circle><circle fill="#74C7D3" r="2" cx="174.9090909090909" cy="246.95454545454544"></circle><circle fill="#74C7D3" r="2" cx="189.3181818181818" cy="246.95454545454544"></circle><circle fill="#74C7D3" r="2" cx="203.72727272727272" cy="246.95454545454544"></circle><circle fill="#74C7D3" r="2" cx="218.13636363636363" cy="246.95454545454544"></circle><circle fill="#74C7D3" r="2" cx="232.54545454545453" cy="246.95454545454544"></circle><circle fill="#74C7D3" r="2" cx="246.95454545454544" cy="246.95454545454544"></circle><circle fill="#74C7D3" r="2" cx="261.3636363636364" cy="246.95454545454544"></circle><circle fill="#74C7D3" r="2" cx="275.77272727272725" cy="246.95454545454544"></circle><circle fill="#74C7D3" r="2" cx="290.1818181818182" cy="246.95454545454544"></circle><circle fill="#74C7D3" r="2" cx="304.59090909090907" cy="246.95454545454544"></circle><circle fill="#74C7D3" r="2" cx="319" cy="246.95454545454544"></circle><circle fill="#74C7D3" r="2" cx="333.4090909090909" cy="246.95454545454544"></circle><circle fill="#74C7D3" r="2" cx="347.8181818181818" cy="246.95454545454544"></circle><circle fill="#74C7D3" r="2" cx="362.2272727272727" cy="246.95454545454544"></circle><circle fill="#74C7D3" r="2" cx="376.6363636363636" cy="246.95454545454544"></circle><circle fill="#74C7D3" r="2" cx="391.0454545454545" cy="246.95454545454544"></circle><circle fill="#74C7D3" r="2" cx="405.45454545454544" cy="246.95454545454544"></circle><circle fill="#74C7D3" r="2" cx="419.8636363636363" cy="246.95454545454544"></circle><circle fill="#74C7D3" r="2" cx="434.27272727272725" cy="246.95454545454544"></circle><circle fill="#74C7D3" r="2" cx="448.68181818181813" cy="246.95454545454544"></circle><circle fill="#74C7D3" r="2" cx="463.09090909090907" cy="246.95454545454544"></circle><circle fill="#74C7D3" r="2" cx="477.5" cy="246.95454545454544"></circle><circle fill="#74C7D3" r="2" cx="491.9090909090909" cy="246.95454545454544"></circle><circle fill="#74C7D3" r="2" cx="506.3181818181818" cy="246.95454545454544"></circle><circle fill="#74C7D3" r="2" cx="520.7272727272727" cy="246.95454545454544"></circle><circle fill="#74C7D3" r="2" cx="535.1363636363636" cy="246.95454545454544"></circle><circle fill="#74C7D3" r="2" cx="549.5454545454545" cy="246.95454545454544"></circle><circle fill="#74C7D3" r="2" cx="563.9545454545454" cy="246.95454545454544"></circle><circle fill="#74C7D3" r="2" cx="578.3636363636364" cy="246.95454545454544"></circle><circle fill="#74C7D3" r="2" cx="592.7727272727273" cy="246.95454545454544"></circle><circle fill="#74C7D3" r="2" cx="607.1818181818181" cy="246.95454545454544"></circle><circle fill="#74C7D3" r="2" cx="621.590909090909" cy="246.95454545454544"></circle><circle fill="#74C7D3" r="2" cx="636" cy="246.95454545454544"></circle><circle fill="#74C7D3" r="2" cx="2" cy="261.3636363636364"></circle><circle fill="#74C7D3" r="2" cx="16.409090909090907" cy="261.3636363636364"></circle><circle fill="#74C7D3" r="2" cx="30.818181818181817" cy="261.3636363636364"></circle><circle fill="#74C7D3" r="2" cx="45.22727272727273" cy="261.3636363636364"></circle><circle fill="#74C7D3" r="2" cx="59.63636363636363" cy="261.3636363636364"></circle><circle fill="#74C7D3" r="2" cx="74.04545454545455" cy="261.3636363636364"></circle><circle fill="#74C7D3" r="2" cx="88.45454545454545" cy="261.3636363636364"></circle><circle fill="#74C7D3" r="2" cx="102.86363636363636" cy="261.3636363636364"></circle><circle fill="#74C7D3" r="2" cx="117.27272727272727" cy="261.3636363636364"></circle><circle fill="#74C7D3" r="2" cx="131.6818181818182" cy="261.3636363636364"></circle><circle fill="#74C7D3" r="2" cx="146.0909090909091" cy="261.3636363636364"></circle><circle fill="#74C7D3" r="2" cx="160.5" cy="261.3636363636364"></circle><circle fill="#74C7D3" r="2" cx="174.9090909090909" cy="261.3636363636364"></circle><circle fill="#74C7D3" r="2" cx="189.3181818181818" cy="261.3636363636364"></circle><circle fill="#74C7D3" r="2" cx="203.72727272727272" cy="261.3636363636364"></circle><circle fill="#74C7D3" r="2" cx="218.13636363636363" cy="261.3636363636364"></circle><circle fill="#74C7D3" r="2" cx="232.54545454545453" cy="261.3636363636364"></circle><circle fill="#74C7D3" r="2" cx="246.95454545454544" cy="261.3636363636364"></circle><circle fill="#74C7D3" r="2" cx="261.3636363636364" cy="261.3636363636364"></circle><circle fill="#74C7D3" r="2" cx="275.77272727272725" cy="261.3636363636364"></circle><circle fill="#74C7D3" r="2" cx="290.1818181818182" cy="261.3636363636364"></circle><circle fill="#74C7D3" r="2" cx="304.59090909090907" cy="261.3636363636364"></circle><circle fill="#74C7D3" r="2" cx="319" cy="261.3636363636364"></circle><circle fill="#74C7D3" r="2" cx="333.4090909090909" cy="261.3636363636364"></circle><circle fill="#74C7D3" r="2" cx="347.8181818181818" cy="261.3636363636364"></circle><circle fill="#74C7D3" r="2" cx="362.2272727272727" cy="261.3636363636364"></circle><circle fill="#74C7D3" r="2" cx="376.6363636363636" cy="261.3636363636364"></circle><circle fill="#74C7D3" r="2" cx="391.0454545454545" cy="261.3636363636364"></circle><circle fill="#74C7D3" r="2" cx="405.45454545454544" cy="261.3636363636364"></circle><circle fill="#74C7D3" r="2" cx="419.8636363636363" cy="261.3636363636364"></circle><circle fill="#74C7D3" r="2" cx="434.27272727272725" cy="261.3636363636364"></circle><circle fill="#74C7D3" r="2" cx="448.68181818181813" cy="261.3636363636364"></circle><circle fill="#74C7D3" r="2" cx="463.09090909090907" cy="261.3636363636364"></circle><circle fill="#74C7D3" r="2" cx="477.5" cy="261.3636363636364"></circle><circle fill="#74C7D3" r="2" cx="491.9090909090909" cy="261.3636363636364"></circle><circle fill="#74C7D3" r="2" cx="506.3181818181818" cy="261.3636363636364"></circle><circle fill="#74C7D3" r="2" cx="520.7272727272727" cy="261.3636363636364"></circle><circle fill="#74C7D3" r="2" cx="535.1363636363636" cy="261.3636363636364"></circle><circle fill="#74C7D3" r="2" cx="549.5454545454545" cy="261.3636363636364"></circle><circle fill="#74C7D3" r="2" cx="563.9545454545454" cy="261.3636363636364"></circle><circle fill="#74C7D3" r="2" cx="578.3636363636364" cy="261.3636363636364"></circle><circle fill="#74C7D3" r="2" cx="592.7727272727273" cy="261.3636363636364"></circle><circle fill="#74C7D3" r="2" cx="607.1818181818181" cy="261.3636363636364"></circle><circle fill="#74C7D3" r="2" cx="621.590909090909" cy="261.3636363636364"></circle><circle fill="#74C7D3" r="2" cx="636" cy="261.3636363636364"></circle><circle fill="#74C7D3" r="2" cx="2" cy="275.77272727272725"></circle><circle fill="#74C7D3" r="2" cx="16.409090909090907" cy="275.77272727272725"></circle><circle fill="#74C7D3" r="2" cx="30.818181818181817" cy="275.77272727272725"></circle><circle fill="#74C7D3" r="2" cx="45.22727272727273" cy="275.77272727272725"></circle><circle fill="#74C7D3" r="2" cx="59.63636363636363" cy="275.77272727272725"></circle><circle fill="#74C7D3" r="2" cx="74.04545454545455" cy="275.77272727272725"></circle><circle fill="#74C7D3" r="2" cx="88.45454545454545" cy="275.77272727272725"></circle><circle fill="#74C7D3" r="2" cx="102.86363636363636" cy="275.77272727272725"></circle><circle fill="#74C7D3" r="2" cx="117.27272727272727" cy="275.77272727272725"></circle><circle fill="#74C7D3" r="2" cx="131.6818181818182" cy="275.77272727272725"></circle><circle fill="#74C7D3" r="2" cx="146.0909090909091" cy="275.77272727272725"></circle><circle fill="#74C7D3" r="2" cx="160.5" cy="275.77272727272725"></circle><circle fill="#74C7D3" r="2" cx="174.9090909090909" cy="275.77272727272725"></circle><circle fill="#74C7D3" r="2" cx="189.3181818181818" cy="275.77272727272725"></circle><circle fill="#74C7D3" r="2" cx="203.72727272727272" cy="275.77272727272725"></circle><circle fill="#74C7D3" r="2" cx="218.13636363636363" cy="275.77272727272725"></circle><circle fill="#74C7D3" r="2" cx="232.54545454545453" cy="275.77272727272725"></circle><circle fill="#74C7D3" r="2" cx="246.95454545454544" cy="275.77272727272725"></circle><circle fill="#74C7D3" r="2" cx="261.3636363636364" cy="275.77272727272725"></circle><circle fill="#74C7D3" r="2" cx="275.77272727272725" cy="275.77272727272725"></circle><circle fill="#74C7D3" r="2" cx="290.1818181818182" cy="275.77272727272725"></circle><circle fill="#74C7D3" r="2" cx="304.59090909090907" cy="275.77272727272725"></circle><circle fill="#74C7D3" r="2" cx="319" cy="275.77272727272725"></circle><circle fill="#74C7D3" r="2" cx="333.4090909090909" cy="275.77272727272725"></circle><circle fill="#74C7D3" r="2" cx="347.8181818181818" cy="275.77272727272725"></circle><circle fill="#74C7D3" r="2" cx="362.2272727272727" cy="275.77272727272725"></circle><circle fill="#74C7D3" r="2" cx="376.6363636363636" cy="275.77272727272725"></circle><circle fill="#74C7D3" r="2" cx="391.0454545454545" cy="275.77272727272725"></circle><circle fill="#74C7D3" r="2" cx="405.45454545454544" cy="275.77272727272725"></circle><circle fill="#74C7D3" r="2" cx="419.8636363636363" cy="275.77272727272725"></circle><circle fill="#74C7D3" r="2" cx="434.27272727272725" cy="275.77272727272725"></circle><circle fill="#74C7D3" r="2" cx="448.68181818181813" cy="275.77272727272725"></circle><circle fill="#74C7D3" r="2" cx="463.09090909090907" cy="275.77272727272725"></circle><circle fill="#74C7D3" r="2" cx="477.5" cy="275.77272727272725"></circle><circle fill="#74C7D3" r="2" cx="491.9090909090909" cy="275.77272727272725"></circle><circle fill="#74C7D3" r="2" cx="506.3181818181818" cy="275.77272727272725"></circle><circle fill="#74C7D3" r="2" cx="520.7272727272727" cy="275.77272727272725"></circle><circle fill="#74C7D3" r="2" cx="535.1363636363636" cy="275.77272727272725"></circle><circle fill="#74C7D3" r="2" cx="549.5454545454545" cy="275.77272727272725"></circle><circle fill="#74C7D3" r="2" cx="563.9545454545454" cy="275.77272727272725"></circle><circle fill="#74C7D3" r="2" cx="578.3636363636364" cy="275.77272727272725"></circle><circle fill="#74C7D3" r="2" cx="592.7727272727273" cy="275.77272727272725"></circle><circle fill="#74C7D3" r="2" cx="607.1818181818181" cy="275.77272727272725"></circle><circle fill="#74C7D3" r="2" cx="621.590909090909" cy="275.77272727272725"></circle><circle fill="#74C7D3" r="2" cx="636" cy="275.77272727272725"></circle></svg>